HIERARCHY
ROOT pelvis
{
  OFFSET 0 100 0
  CHANNELS 6 Xposition Yposition Zposition Zrotation Xrotation Yrotation
  JOINT pelvis_right_femur
  {
    OFFSET -10.78128 -3.44521 -0.5502486
    CHANNELS 3 Zrotation Xrotation Yrotation
    JOINT right_femur_tibia
    {
      OFFSET -0.8047443 -44.0398 -0.1307829
      CHANNELS 3 Zrotation Xrotation Yrotation
      JOINT right_tibia_foot
      {
        OFFSET 3.006224 -47.83518 -5
        CHANNELS 3 Zrotation Xrotation Yrotation
        End Site
        {
          OFFSET 0 -5 15
        }
      }
    }
  }
  JOINT pelvis_left_femur
  {
    OFFSET 10.78128 -3.44521 -0.5502486
    CHANNELS 3 Zrotation Xrotation Yrotation
    JOINT left_femur_tibia
    {
      OFFSET 0.8047443 -44.0398 -0.1307829
      CHANNELS 3 Zrotation Xrotation Yrotation
      JOINT left_tibia_foot
      {
        OFFSET -4.370144 -48.10324 -4.275266
        CHANNELS 3 Zrotation Xrotation Yrotation
        End Site
        {
          OFFSET 0 -5 15
        }
      }
    }
  }
  JOINT pelvis_spine1
  {
    OFFSET 0 6.468898 -3.129235
    CHANNELS 3 Zrotation Xrotation Yrotation
    JOINT spine1
    {
      OFFSET 0 23.15396 4.99043
      CHANNELS 3 Zrotation Xrotation Yrotation
      JOINT spine2
      {
        OFFSET 0 20.79997 -5.064912
        CHANNELS 3 Zrotation Xrotation Yrotation
        JOINT neck
        {
          OFFSET 0 14.38658 9.616178
          CHANNELS 3 Zrotation Xrotation Yrotation
          End Site
          {
            OFFSET 0 20 0
          }
        }
      }
      JOINT right_manubrium
      {
        OFFSET -5.722621 16.35077 3.967754
        CHANNELS 3 Zrotation Xrotation Yrotation
        JOINT right_clavicle
        {
          OFFSET -13.16364 1.694482 -4.693211
          CHANNELS 3 Zrotation Xrotation Yrotation
          JOINT right_humerus
          {
            OFFSET -28.5034 -0.3100689 -2.792744
            CHANNELS 3 Zrotation Xrotation Yrotation
            JOINT right_radius
            {
              OFFSET -25.15693 0.02248979 -1.271978
              CHANNELS 3 Zrotation Xrotation Yrotation
              End Site
              {
                OFFSET -15 0 0
              }
            }
          }
        }
      }
      JOINT left_manubrium
      {
        OFFSET 5.722621 16.35077 3.967754
        CHANNELS 3 Zrotation Xrotation Yrotation
        JOINT left_clavicle
        {
          OFFSET 13.16364 1.694482 -4.693211
          CHANNELS 3 Zrotation Xrotation Yrotation
          JOINT left_humerus
          {
            OFFSET 29.39168 -1.063119 -2.237045
            CHANNELS 3 Zrotation Xrotation Yrotation
            JOINT left_radius
            {
              OFFSET 24.59957 -0.9528479 0.9047498
              CHANNELS 3 Zrotation Xrotation Yrotation
              End Site
              {
                OFFSET 15 -0 -0
              }
            }
          }
        }
      }
    }
  }
}
MOTION
Frames: 15
Frame Time: 0.0416666666667
26.88245 100.262 244.2732 1.20546 -8.059206 -6.974975 1.328589 11.94351 5.564258 -0 12.95103 -0 4.69864 -9.921807 -0.8771915 -2.153701 -13.63435 -4.886656 -0 29.93846 -0 -7.842177 -7.656573 17.85802 -1.194023 -0.7814961 8.232117 -1.031556 10.28252 -3.253015 2.067123 21.59003 5.564763 1.760788 -15.03044 7.273414 2.293498 -19.23253 11.75714 83.19492 23.74639 -10.73105 -0 0 20.77412 -24.68976 14.81152 12.14225 5.062698 -16.57982 -3.583356 -90.39084 22.33451 19.69507 0 0 -15.18268 -2.59478 7.268109 15.0326
26.93612 99.97752 250.5657 1.315808 -8.24959 -7.067743 0.9858269 12.14918 5.457273 -0 15.25308 -0 4.926196 -10.15765 -1.047258 -2.380892 -13.9692 -5.095267 -0 28.12156 -0 -7.684776 -8.290172 17.90173 -1.38052 -0.6303506 8.240912 -1.199275 10.0436 -3.042834 2.160937 21.75389 5.500638 1.624383 -14.85451 7.427008 2.121061 -19.25551 11.58583 83.09325 23.42422 -10.16365 -0 0 21.17903 -24.6952 14.59962 12.18373 5.031012 -16.24276 -3.56403 -90.45369 22.59681 19.79823 0 0 -14.6894 -2.768448 7.32518 15.19471
27.02495 99.71437 256.8078 1.435023 -8.437756 -7.025554 0.6474946 11.77236 5.265763 -0 17.75586 -0 5.064277 -10.19892 -1.354175 -2.739963 -13.60376 -5.401044 -0 26.52316 -0 -7.498404 -8.987119 17.84522 -1.589014 -0.5016612 8.143443 -1.317066 9.812169 -2.924572 2.249935 21.94281 5.445329 1.486409 -14.67556 7.591887 1.993103 -19.12614 11.39611 83.1778 23.19459 -9.892351 -0 0 21.25368 -24.59979 14.41322 12.14237 5.004228 -16.01371 -3.57496 -90.31534 22.88577 19.56414 0 0 -14.37515 -2.857131 7.427928 15.27048
27.14053 99.50914 262.9918 1.561703 -8.618825 -6.843946 0.3229327 10.85128 4.995762 -0 20.36398 -0 5.108885 -10.06264 -1.787081 -3.204265 -12.57807 -5.782249 -0 25.19291 -0 -7.29558 -9.726588 17.69512 -1.811872 -0.3953811 7.946381 -1.385018 9.590747 -2.894534 2.335372 22.15305 5.39594 1.349338 -14.49654 7.763615 1.907755 -18.85107 11.19218 83.43472 23.05433 -9.906698 -0 0 21.0085 -24.40403 14.25203 12.01805 4.983507 -15.89262 -3.613057 -89.98575 23.19432 19.00605 0 0 -14.23955 -2.860665 7.576512 15.25785
27.27392 99.38984 269.1143 1.694002 -8.784947 -6.525705 0.02055983 9.460501 4.661031 -0 22.93101 -0 5.055947 -9.784647 -2.322568 -3.733989 -10.98103 -6.207757 -0 24.15776 -0 -7.088758 -10.48725 17.46546 -2.040531 -0.3098739 7.663075 -1.405284 9.379417 -2.943845 2.419459 22.37918 5.34797 1.216584 -14.32123 7.935998 1.857098 -18.44648 10.97851 83.84006 22.99349 -10.17744 -0 0 20.47532 -24.11261 14.11183 11.81481 4.97193 -15.87397 -3.672213 -89.48846 23.5118 18.15515 0 0 -14.2734 -2.781568 7.770646 15.15566
27.41553 99.37136 275.1773 1.828669 -8.925782 -6.082686 -0.2500392 7.701161 4.282084 -0 25.26343 -0 4.899108 -9.415916 -2.927624 -4.282023 -8.938664 -6.642933 -0 23.43021 -0 -6.89032 -11.24695 17.17572 -2.265514 -0.2424478 7.31179 -1.381225 9.176178 -3.059933 2.505363 22.61445 5.295405 1.092474 -14.15413 8.101263 1.828098 -17.9352 10.75973 84.36241 22.99769 -10.66171 -0 0 19.7012 -23.73258 13.98517 11.53931 4.974437 -15.94857 -3.743817 -88.85749 23.82574 17.05558 0 0 -14.46189 -2.623744 8.010172 14.96251
27.55491 99.4533 281.1896 1.960687 -9.030399 -5.53632 -0.4779192 5.687155 3.883353 -0 27.14995 -0 4.630416 -9.014346 -3.564865 -4.802178 -6.596001 -7.056504 -0 23.01165 -0 -6.711497 -11.98398 16.84798 -2.477297 -0.1899627 6.913209 -1.316941 8.977833 -3.228316 2.596674 22.85162 5.231635 0.9816713 -13.9999 8.251072 1.805094 -17.34342 10.54049 84.96663 23.05084 -11.30937 -0 0 18.7413 -23.27265 13.8629 11.19989 4.99683 -16.10503 -3.818061 -88.1327 24.12396 15.75909 0 0 -14.78669 -2.391975 8.294681 14.67721
27.68083 99.62087 287.1657 2.083655 -9.090078 -4.916058 -0.6525346 3.52891 3.489021 -0 28.40796 -0 4.243463 -8.633556 -4.199156 -5.257317 -4.094779 -7.426127 -0 22.89281 -0 -6.560696 -12.67933 16.50343 -2.66772 -0.1494159 6.487443 -1.217083 8.781223 -3.434547 2.696476 23.08396 5.150941 0.8882365 -13.86258 8.378088 1.773347 -16.69741 10.32526 85.61861 23.13778 -12.07017 -0 0 17.65111 -22.74302 13.7362 10.80625 5.0441 -16.33093 -3.88578 -87.35413 24.39645 14.31939 0 0 -15.22718 -2.091985 8.622528 14.30057
27.78159 99.84857 293.1247 2.190664 -9.100549 -4.256329 -0.7658586 1.322578 3.119521 -0 28.92066 -0 3.73661 -8.314324 -4.802494 -5.623646 -1.557377 -7.740266 -0 23.05459 -0 -6.442314 -13.31807 16.16022 -2.831048 -0.1182592 6.051917 -1.086805 8.584307 -3.665526 2.806558 23.30622 5.049708 0.8148912 -13.74503 8.477173 1.721893 -16.02123 10.11804 86.28875 23.24589 -12.8987 -0 0 16.48089 -22.15557 13.59806 10.36943 5.118975 -16.61334 -3.9399 -86.55805 24.63626 12.78853 0 0 -15.76036 -1.730759 8.990062 13.83699
27.84571 100.105 299.0876 2.275259 -9.062966 -3.593181 -0.8134923 -0.8496837 2.790091 -0 28.65085 -0 3.114641 -8.081919 -5.355088 -5.890247 0.9152621 -7.996606 -0 23.47037 -0 -6.356401 -13.88858 15.8339 -2.964158 -0.09430216 5.621068 -0.931916 8.386791 -3.909523 2.927016 23.51501 4.926898 0.7628484 -13.64887 8.545665 1.644677 -15.33687 9.922409 86.95241 23.36552 -13.75467 -0 0 15.27463 -21.52435 13.44362 9.902322 5.221127 -16.93843 -3.975916 -85.77689 24.83956 11.21769 0 0 -16.35878 -1.317121 9.391468 13.2956
27.86295 100.3575 305.0745 2.332322 -8.984127 -2.96139 -0.7947405 -2.909416 2.511085 -0 27.63885 -0 2.389122 -7.947819 -5.843259 -6.056112 3.23314 -8.199083 -0 24.10921 -0 -6.298663 -14.37976 15.5401 -3.066072 -0.07527566 5.207656 -0.7593057 8.190519 -4.155002 3.056102 23.70902 4.784026 0.7320688 -13.57482 8.582959 1.54042 -14.66633 9.741871 87.58735 23.4897 -14.59882 -0 0 14.07306 -20.86681 13.2697 9.421028 5.346756 -17.28992 -3.991644 -85.04271 25.00524 9.662645 0 0 -16.98581 -0.8627894 9.818954 12.69129
27.82566 100.5767 311.1013 2.358813 -8.876537 -2.392244 -0.712258 -4.767433 2.288904 -0 25.99649 -0 1.578358 -7.912862 -6.256051 -6.127054 5.301437 -8.355186 -0 24.9385 -0 -6.260364 -14.77749 15.29816 -3.137295 -0.0582716 4.824743 -0.577548 7.999818 -4.388914 3.190138 23.88908 4.624996 0.7216523 -13.52314 8.589876 1.412067 -14.03485 9.580263 88.17012 23.61354 -15.38686 -0 0 12.91862 -20.2054 13.07388 8.946664 5.488198 -17.64701 -3.986749 -84.39227 25.13461 8.191645 0 0 -17.58953 -0.3838244 10.26304 12.04602
27.73029 100.7398 317.1766 2.354228 -8.757941 -1.911999 -0.5716273 -6.31486 2.126649 -0 23.89762 -0 0.7068088 -7.970258 -6.582544 -6.113398 7.010087 -8.473852 -0 25.92573 -0 -6.22854 -15.06256 15.13335 -3.179258 -0.03940925 4.48701 -0.3971563 7.821554 -4.595681 3.323599 24.05812 4.455817 0.7301707 -13.49399 8.568123 1.266035 -13.47276 9.441963 88.67339 23.73402 -16.06568 -0 0 11.85862 -19.56827 12.8541 8.506212 5.633926 -17.98324 -3.962362 -83.86985 25.23149 6.8898 0 0 -18.09976 0.0985845 10.71308 11.3893
27.57841 100.834 323.2998 2.320431 -8.649185 -1.541129 -0.380848 -7.430188 2.024116 -0 21.55592 -0 -0.1970491 -8.108349 -6.811549 -6.028192 8.239569 -8.563674 -0 27.03957 -0 -6.18761 -15.21229 15.07482 -3.193968 -0.0141266 4.210077 -0.2297708 7.664333 -4.758199 3.449771 24.2205 4.283851 0.7558818 -13.48745 8.51996 1.110957 -13.01357 9.331457 89.06735 23.84967 -16.57659 -0 0 10.94308 -18.98696 12.60887 8.130219 5.769793 -18.26863 -3.920756 -83.52384 25.30175 5.852641 0 0 -18.43438 0.5596126 11.15832 10.75571
27.37653 100.8568 329.4609 2.260741 -8.570233 -1.294439 -0.1496656 -8.003187 1.977471 -0 19.18767 -0 -1.104686 -8.313174 -6.933778 -5.885562 8.883726 -8.631419 -0 28.25004 -0 -6.122695 -15.20607 15.14913 -3.183824 0.02185432 4.007726 -0.08623293 7.53671 -4.860968 3.562017 24.38086 4.116552 0.7968632 -13.5034 8.448039 0.9558376 -12.68795 9.252352 89.32507 23.96014 -16.86614 -0 0 10.21677 -18.49092 12.33802 7.847147 5.881745 -18.47516 -3.864967 -83.39719 25.35188 5.168171 0 0 -18.51588 0.9749906 11.58943 10.17894
